<mxfile host="app.diagrams.net" modified="2021-04-02T17:02:20.765Z" agent="5.0 (Windows NT 10.0; Win64; x64) AppleWebKit/537.36 (KHTML, like Gecko) Chrome/89.0.4389.90 Safari/537.36" etag="TwOg7JnF1LfuNq5xgGlj" version="14.4.9" type="github">
  <diagram id="oExPun0NYCDCHldTXq9M" name="Page-1">
    <mxGraphModel dx="1038" dy="548" grid="1" gridSize="10" guides="1" tooltips="1" connect="1" arrows="1" fold="1" page="1" pageScale="1" pageWidth="827" pageHeight="1169" math="0" shadow="0">
      <root>
        <mxCell id="0" />
        <mxCell id="1" parent="0" />
        <mxCell id="j3Enmf15XqCyTin7YHNL-1" value="" style="whiteSpace=wrap;html=1;aspect=fixed;" vertex="1" parent="1">
          <mxGeometry x="160" y="120" width="520" height="520" as="geometry" />
        </mxCell>
        <mxCell id="j3Enmf15XqCyTin7YHNL-2" value="" style="rounded=0;whiteSpace=wrap;html=1;" vertex="1" parent="1">
          <mxGeometry x="200" y="160" width="460" height="60" as="geometry" />
        </mxCell>
        <mxCell id="j3Enmf15XqCyTin7YHNL-4" value="Type what do you think" style="text;html=1;strokeColor=none;fillColor=none;align=center;verticalAlign=middle;whiteSpace=wrap;rounded=0;" vertex="1" parent="1">
          <mxGeometry x="200" y="160" width="160" height="20" as="geometry" />
        </mxCell>
        <mxCell id="j3Enmf15XqCyTin7YHNL-5" value="" style="rounded=1;whiteSpace=wrap;html=1;" vertex="1" parent="1">
          <mxGeometry x="205" y="180" width="430" height="30" as="geometry" />
        </mxCell>
        <mxCell id="j3Enmf15XqCyTin7YHNL-7" value="" style="ellipse;whiteSpace=wrap;html=1;aspect=fixed;" vertex="1" parent="1">
          <mxGeometry x="200" y="260" width="50" height="50" as="geometry" />
        </mxCell>
        <mxCell id="j3Enmf15XqCyTin7YHNL-8" value="" style="ellipse;whiteSpace=wrap;html=1;aspect=fixed;" vertex="1" parent="1">
          <mxGeometry x="200" y="340" width="50" height="50" as="geometry" />
        </mxCell>
        <mxCell id="j3Enmf15XqCyTin7YHNL-13" value="" style="ellipse;whiteSpace=wrap;html=1;aspect=fixed;" vertex="1" parent="1">
          <mxGeometry x="200" y="490" width="50" height="50" as="geometry" />
        </mxCell>
        <mxCell id="j3Enmf15XqCyTin7YHNL-14" value="" style="ellipse;whiteSpace=wrap;html=1;aspect=fixed;" vertex="1" parent="1">
          <mxGeometry x="200" y="410" width="50" height="50" as="geometry" />
        </mxCell>
        <mxCell id="j3Enmf15XqCyTin7YHNL-15" value="USER" style="text;html=1;strokeColor=none;fillColor=none;align=center;verticalAlign=middle;whiteSpace=wrap;rounded=0;" vertex="1" parent="1">
          <mxGeometry x="205" y="275" width="40" height="20" as="geometry" />
        </mxCell>
        <mxCell id="j3Enmf15XqCyTin7YHNL-16" value="" style="rounded=1;whiteSpace=wrap;html=1;" vertex="1" parent="1">
          <mxGeometry x="260" y="275" width="320" height="25" as="geometry" />
        </mxCell>
        <mxCell id="j3Enmf15XqCyTin7YHNL-17" value="" style="verticalLabelPosition=bottom;verticalAlign=top;html=1;shape=mxgraph.basic.heart" vertex="1" parent="1">
          <mxGeometry x="385" y="310" width="25" height="20" as="geometry" />
        </mxCell>
        <mxCell id="j3Enmf15XqCyTin7YHNL-18" value="Likes" style="text;html=1;strokeColor=none;fillColor=none;align=center;verticalAlign=middle;whiteSpace=wrap;rounded=0;" vertex="1" parent="1">
          <mxGeometry x="410" y="310" width="40" height="20" as="geometry" />
        </mxCell>
        <mxCell id="j3Enmf15XqCyTin7YHNL-20" value="" style="rounded=1;whiteSpace=wrap;html=1;" vertex="1" parent="1">
          <mxGeometry x="260" y="352.5" width="320" height="25" as="geometry" />
        </mxCell>
        <mxCell id="j3Enmf15XqCyTin7YHNL-21" value="" style="rounded=1;whiteSpace=wrap;html=1;" vertex="1" parent="1">
          <mxGeometry x="260" y="422.5" width="320" height="25" as="geometry" />
        </mxCell>
        <mxCell id="j3Enmf15XqCyTin7YHNL-22" value="" style="rounded=1;whiteSpace=wrap;html=1;" vertex="1" parent="1">
          <mxGeometry x="260" y="502.5" width="320" height="25" as="geometry" />
        </mxCell>
        <mxCell id="j3Enmf15XqCyTin7YHNL-23" value="" style="verticalLabelPosition=bottom;verticalAlign=top;html=1;shape=mxgraph.basic.heart" vertex="1" parent="1">
          <mxGeometry x="385" y="390" width="25" height="20" as="geometry" />
        </mxCell>
        <mxCell id="j3Enmf15XqCyTin7YHNL-25" value="" style="verticalLabelPosition=bottom;verticalAlign=top;html=1;shape=mxgraph.basic.heart" vertex="1" parent="1">
          <mxGeometry x="385" y="460" width="25" height="20" as="geometry" />
        </mxCell>
        <mxCell id="j3Enmf15XqCyTin7YHNL-26" style="edgeStyle=orthogonalEdgeStyle;rounded=0;orthogonalLoop=1;jettySize=auto;html=1;exitX=0.5;exitY=1;exitDx=0;exitDy=0;exitPerimeter=0;" edge="1" parent="1" source="j3Enmf15XqCyTin7YHNL-23" target="j3Enmf15XqCyTin7YHNL-23">
          <mxGeometry relative="1" as="geometry" />
        </mxCell>
        <mxCell id="j3Enmf15XqCyTin7YHNL-28" value="" style="verticalLabelPosition=bottom;verticalAlign=top;html=1;shape=mxgraph.basic.heart" vertex="1" parent="1">
          <mxGeometry x="385" y="540" width="25" height="20" as="geometry" />
        </mxCell>
        <mxCell id="j3Enmf15XqCyTin7YHNL-31" value="I feel greaat!!!" style="text;html=1;strokeColor=none;fillColor=none;align=center;verticalAlign=middle;whiteSpace=wrap;rounded=0;" vertex="1" parent="1">
          <mxGeometry x="255" y="277.5" width="130" height="20" as="geometry" />
        </mxCell>
        <mxCell id="j3Enmf15XqCyTin7YHNL-37" value="" style="ellipse;whiteSpace=wrap;html=1;aspect=fixed;" vertex="1" parent="1">
          <mxGeometry x="10" y="175" width="30" height="30" as="geometry" />
        </mxCell>
        <mxCell id="j3Enmf15XqCyTin7YHNL-39" value="" style="ellipse;whiteSpace=wrap;html=1;aspect=fixed;" vertex="1" parent="1">
          <mxGeometry x="10" y="215" width="30" height="30" as="geometry" />
        </mxCell>
        <mxCell id="j3Enmf15XqCyTin7YHNL-40" value="" style="ellipse;whiteSpace=wrap;html=1;aspect=fixed;" vertex="1" parent="1">
          <mxGeometry x="10" y="250" width="30" height="30" as="geometry" />
        </mxCell>
        <mxCell id="j3Enmf15XqCyTin7YHNL-41" value="" style="ellipse;whiteSpace=wrap;html=1;aspect=fixed;" vertex="1" parent="1">
          <mxGeometry x="10" y="290" width="30" height="30" as="geometry" />
        </mxCell>
        <mxCell id="j3Enmf15XqCyTin7YHNL-42" value="" style="ellipse;whiteSpace=wrap;html=1;aspect=fixed;" vertex="1" parent="1">
          <mxGeometry x="10" y="330" width="30" height="30" as="geometry" />
        </mxCell>
        <mxCell id="j3Enmf15XqCyTin7YHNL-43" value="" style="ellipse;whiteSpace=wrap;html=1;aspect=fixed;" vertex="1" parent="1">
          <mxGeometry x="10" y="370" width="30" height="30" as="geometry" />
        </mxCell>
        <mxCell id="j3Enmf15XqCyTin7YHNL-46" value="Users" style="text;html=1;strokeColor=none;fillColor=none;align=center;verticalAlign=middle;whiteSpace=wrap;rounded=0;" vertex="1" parent="1">
          <mxGeometry x="5" y="150" width="40" height="20" as="geometry" />
        </mxCell>
        <mxCell id="j3Enmf15XqCyTin7YHNL-47" value="" style="rounded=1;whiteSpace=wrap;html=1;" vertex="1" parent="1">
          <mxGeometry x="55" y="175" width="75" height="30" as="geometry" />
        </mxCell>
        <mxCell id="j3Enmf15XqCyTin7YHNL-48" value="" style="rounded=1;whiteSpace=wrap;html=1;" vertex="1" parent="1">
          <mxGeometry x="55" y="215" width="75" height="30" as="geometry" />
        </mxCell>
        <mxCell id="j3Enmf15XqCyTin7YHNL-49" value="" style="rounded=1;whiteSpace=wrap;html=1;" vertex="1" parent="1">
          <mxGeometry x="55" y="250" width="75" height="30" as="geometry" />
        </mxCell>
        <mxCell id="j3Enmf15XqCyTin7YHNL-50" value="" style="rounded=1;whiteSpace=wrap;html=1;" vertex="1" parent="1">
          <mxGeometry x="55" y="290" width="75" height="30" as="geometry" />
        </mxCell>
        <mxCell id="j3Enmf15XqCyTin7YHNL-51" value="" style="rounded=1;whiteSpace=wrap;html=1;" vertex="1" parent="1">
          <mxGeometry x="55" y="330" width="75" height="30" as="geometry" />
        </mxCell>
        <mxCell id="j3Enmf15XqCyTin7YHNL-52" value="" style="rounded=1;whiteSpace=wrap;html=1;" vertex="1" parent="1">
          <mxGeometry x="55" y="370" width="75" height="30" as="geometry" />
        </mxCell>
        <mxCell id="j3Enmf15XqCyTin7YHNL-53" value="CLICK TO CHAT" style="text;html=1;strokeColor=none;fillColor=none;align=center;verticalAlign=middle;whiteSpace=wrap;rounded=0;" vertex="1" parent="1">
          <mxGeometry x="63.75" y="180" width="57.5" height="20" as="geometry" />
        </mxCell>
        <mxCell id="j3Enmf15XqCyTin7YHNL-54" value="&lt;h1&gt;WELCOME Username&lt;/h1&gt;" style="text;html=1;strokeColor=none;fillColor=none;spacing=5;spacingTop=-20;whiteSpace=wrap;overflow=hidden;rounded=0;" vertex="1" parent="1">
          <mxGeometry x="5" y="20" width="605" height="120" as="geometry" />
        </mxCell>
      </root>
    </mxGraphModel>
  </diagram>
</mxfile>
